REM DIRINDEX 1\2\4,1\2\5,1\2\6,1\3\7,1\3\8,1\3\9,1\3\10
REM DIRNAME cjc057,folder01,folder02,folder03,folder04,folder05,folder06,folder07,folder08,folder09
TITLE ""
FILE "a_072.mp3" MP3
  TRACK 01 AUDIO
    TITLE "0:"
    INDEX 01 00:00:00
  TRACK 02 AUDIO
    TITLE "4:cjc057_00947"
    INDEX 01 00:00:13
  TRACK 03 AUDIO
    TITLE "0:"
    INDEX 01 00:01:42
  TRACK 04 AUDIO
    TITLE "5:cjc057_00948"
    INDEX 01 00:02:00
  TRACK 05 AUDIO
    TITLE "0:"
    INDEX 01 00:04:56
  TRACK 06 AUDIO
    TITLE "4:cjc057_00949"
    INDEX 01 00:05:63
  TRACK 07 AUDIO
    TITLE "0:"
    INDEX 01 00:07:23
  TRACK 08 AUDIO
    TITLE "5:cjc057_00950"
    INDEX 01 00:07:56
  TRACK 09 AUDIO
    TITLE "0:"
    INDEX 01 00:09:06
  TRACK 10 AUDIO
    TITLE "4:cjc057_00951"
    INDEX 01 00:10:14
  TRACK 11 AUDIO
    TITLE "0:"
    INDEX 01 00:11:29
  TRACK 12 AUDIO
    TITLE "5:cjc057_00952"
    INDEX 01 00:11:64
  TRACK 13 AUDIO
    TITLE "0:"
    INDEX 01 00:13:10
  TRACK 14 AUDIO
    TITLE "4:cjc057_00953"
    INDEX 01 00:14:19
  TRACK 15 AUDIO
    TITLE "0:"
    INDEX 01 00:15:42
  TRACK 16 AUDIO
    TITLE "5:cjc057_00954"
    INDEX 01 00:15:74
  TRACK 17 AUDIO
    TITLE "0:"
    INDEX 01 00:17:63
  TRACK 18 AUDIO
    TITLE "4:cjc057_00955"
    INDEX 01 00:18:70
  TRACK 19 AUDIO
    TITLE "0:"
    INDEX 01 00:20:32
  TRACK 20 AUDIO
    TITLE "5:cjc057_00956"
    INDEX 01 00:20:65
  TRACK 21 AUDIO
    TITLE "0:"
    INDEX 01 00:22:62
  TRACK 22 AUDIO
    TITLE "4:cjc057_00957"
    INDEX 01 00:23:73
  TRACK 23 AUDIO
    TITLE "0:"
    INDEX 01 00:25:23
  TRACK 24 AUDIO
    TITLE "5:cjc057_00958"
    INDEX 01 00:25:56
  TRACK 25 AUDIO
    TITLE "0:"
    INDEX 01 00:27:22
  TRACK 26 AUDIO
    TITLE "4:cjc057_00959"
    INDEX 01 00:28:31
  TRACK 27 AUDIO
    TITLE "0:"
    INDEX 01 00:29:66
  TRACK 28 AUDIO
    TITLE "5:cjc057_00960"
    INDEX 01 00:30:26
  TRACK 29 AUDIO
    TITLE "0:"
    INDEX 01 00:32:00
  TRACK 30 AUDIO
    TITLE "4:cjc057_00961"
    INDEX 01 00:33:07
  TRACK 31 AUDIO
    TITLE "0:"
    INDEX 01 00:34:42
  TRACK 32 AUDIO
    TITLE "5:cjc057_00962"
    INDEX 01 00:34:73
  TRACK 33 AUDIO
    TITLE "0:"
    INDEX 01 00:36:44
  TRACK 34 AUDIO
    TITLE "4:cjc057_00963"
    INDEX 01 00:37:50
  TRACK 35 AUDIO
    TITLE "0:"
    INDEX 01 00:38:51
  TRACK 36 AUDIO
    TITLE "5:cjc057_00964"
    INDEX 01 00:39:09
  TRACK 37 AUDIO
    TITLE "0:"
    INDEX 01 00:40:34
  TRACK 38 AUDIO
    TITLE "4:cjc057_00965"
    INDEX 01 00:41:42
  TRACK 39 AUDIO
    TITLE "0:"
    INDEX 01 00:42:51
  TRACK 40 AUDIO
    TITLE "5:cjc057_00966"
    INDEX 01 00:43:11
  TRACK 41 AUDIO
    TITLE "0:"
    INDEX 01 00:44:36
  TRACK 42 AUDIO
    TITLE "4:cjc057_00967"
    INDEX 01 00:45:43
  TRACK 43 AUDIO
    TITLE "0:"
    INDEX 01 00:46:62
  TRACK 44 AUDIO
    TITLE "5:cjc057_00968"
    INDEX 01 00:47:21
  TRACK 45 AUDIO
    TITLE "0:"
    INDEX 01 00:48:48
  TRACK 46 AUDIO
    TITLE "4:cjc057_00969"
    INDEX 01 00:49:55
  TRACK 47 AUDIO
    TITLE "0:"
    INDEX 01 00:50:60
  TRACK 48 AUDIO
    TITLE "5:cjc057_00970"
    INDEX 01 00:51:15
  TRACK 49 AUDIO
    TITLE "0:"
    INDEX 01 00:52:26
  TRACK 50 AUDIO
    TITLE "4:cjc057_00971"
    INDEX 01 00:53:37
  TRACK 51 AUDIO
    TITLE "0:"
    INDEX 01 00:54:50
  TRACK 52 AUDIO
    TITLE "5:cjc057_00972"
    INDEX 01 00:55:08
  TRACK 53 AUDIO
    TITLE "0:"
    INDEX 01 00:56:72
  TRACK 54 AUDIO
    TITLE "4:cjc057_00973"
    INDEX 01 00:58:05
  TRACK 55 AUDIO
    TITLE "0:"
    INDEX 01 00:59:32
  TRACK 56 AUDIO
    TITLE "5:cjc057_00974"
    INDEX 01 00:59:65
  TRACK 57 AUDIO
    TITLE "0:"
    INDEX 01 01:01:17
  TRACK 58 AUDIO
    TITLE "4:cjc057_00975"
    INDEX 01 01:02:26
  TRACK 59 AUDIO
    TITLE "0:"
    INDEX 01 01:03:39
  TRACK 60 AUDIO
    TITLE "5:cjc057_00976"
    INDEX 01 01:03:69
  TRACK 61 AUDIO
    TITLE "0:"
    INDEX 01 01:05:05
  TRACK 62 AUDIO
    TITLE "4:cjc057_00977"
    INDEX 01 01:06:14
  TRACK 63 AUDIO
    TITLE "0:"
    INDEX 01 01:07:29
  TRACK 64 AUDIO
    TITLE "5:cjc057_00978"
    INDEX 01 01:07:63
  TRACK 65 AUDIO
    TITLE "0:"
    INDEX 01 01:09:38
  TRACK 66 AUDIO
    TITLE "4:cjc057_00979"
    INDEX 01 01:10:47
  TRACK 67 AUDIO
    TITLE "0:"
    INDEX 01 01:12:17
  TRACK 68 AUDIO
    TITLE "5:cjc057_00980"
    INDEX 01 01:12:50
  TRACK 69 AUDIO
    TITLE "0:"
    INDEX 01 01:14:70
